<?xml version="1.0" encoding="UTF-8"?>
<svg width="40px" height="40px" viewBox="0 0 40 40" version="1.1" xmlns="http://www.w3.org/2000/svg" xmlns:xlink="http://www.w3.org/1999/xlink">
    <title>Google logo</title>
    <g id="页面-1" stroke="none" stroke-width="1" fill="none" fill-rule="evenodd">
        <g id="充值登录弹窗" transform="translate(-86, -1230)" fill-rule="nonzero">
            <g id="编组-3" transform="translate(50, 1202)">
                <g id="ic_google" transform="translate(36, 28)">
                    <g id="google" transform="translate(4, 4)">
                        <path d="M6.69635477,16 C6.69635477,14.9608796 6.87372316,13.9640331 7.18752873,13.0299156 L1.67819414,8.91161682 C0.571278107,11.1105068 -0.00354388103,13.5384728 0,16 C0,18.5473451 0.603068923,20.9501406 1.67546541,23.0829285 L7.18207127,18.9578113 C6.86098995,18.0046662 6.6969482,17.0057202 6.69635477,16" id="路径" fill="#FBBC05"></path>
                        <path d="M16.3724818,6.5456405 C18.6782707,6.5456405 20.7616669,7.34475412 22.3989134,8.65388222 L27.1619365,3.99965907 C24.259917,1.52731613 20.5392742,0 16.3724818,0 C9.90262925,0 4.34144849,3.6205574 1.67819414,8.91161682 L7.1902575,13.0299156 C8.45912357,9.25799028 12.0774384,6.5456405 16.3724818,6.5456405" id="路径" fill="#EA4335"></path>
                        <path d="M16.3724818,25.4543595 C12.076074,25.4543595 8.45775918,22.7420097 7.18752873,18.9700844 L1.67819414,23.0883832 C4.34008414,28.3794426 9.90126487,32 16.3724818,32 C20.3646346,32 24.1766903,30.6131424 27.039143,28.012614 L21.8081403,24.0552288 C20.333254,24.9648001 18.4749792,25.4543595 16.3711175,25.4543595" id="路径" fill="#34A853"></path>
                        <path d="M32,16 C32,15.0549732 31.8499191,14.0363078 31.6275264,13.091281 L16.3711175,13.091281 L16.3711175,19.2728203 L25.1522164,19.2728203 C24.7142529,21.381062 23.5190629,23.001108 21.8095047,24.0552288 L27.039143,28.012614 C30.0448548,25.2825364 32,21.2160573 32,16" id="路径" fill="#4285F4"></path>
                    </g>
                </g>
            </g>
        </g>
    </g>
</svg>